<svg width="24" height="16" viewBox="0 0 24 16" fill="none" xmlns="http://www.w3.org/2000/svg">
<path d="M0 14.6667C0 15.403 0.596953 16 1.33333 16H16.6667C17.403 16 18 15.403 18 14.6667C18 13.9303 17.403 13.3333 16.6667 13.3333H1.33333C0.596953 13.3333 0 13.9303 0 14.6667Z" fill="#939598"/>
<path d="M0 8C0 8.73638 0.596954 9.33333 1.33333 9.33333H22.6667C23.403 9.33333 24 8.73638 24 8C24 7.26362 23.403 6.66667 22.6667 6.66667H1.33333C0.596954 6.66667 0 7.26362 0 8Z" fill="#939598"/>
<path d="M1.33333 0C0.596954 0 0 0.596954 0 1.33333C0 2.06971 0.596954 2.66667 1.33333 2.66667H10.6667C11.403 2.66667 12 2.06971 12 1.33333C12 0.596954 11.403 0 10.6667 0H1.33333Z" fill="#939598"/>
</svg>
